<?xml version="1.0" standalone="no"?><!DOCTYPE svg PUBLIC "-//W3C//DTD SVG 1.1//EN" "http://www.w3.org/Graphics/SVG/1.1/DTD/svg11.dtd"><svg t="1513663661533" class="icon" style="" viewBox="0 0 1024 1024" version="1.1" xmlns="http://www.w3.org/2000/svg" p-id="1869" xmlns:xlink="http://www.w3.org/1999/xlink" width="200" height="200"><defs><style type="text/css"></style></defs><path d="M960 278.848v-0.896a45.696 45.696 0 0 0-22.592-38.848L534.592 6.08a44.928 44.928 0 0 0-45.184 0L85.696 238.208a47.04 47.04 0 0 0-22.592 39.744v469.632c0 1.792 0 3.648 0.896 5.44 0 0.896 0 2.688 0.896 3.584a7.04 7.04 0 0 0 1.792 4.544c0.896 1.792 0.896 2.688 1.792 4.48 0.896 0.896 0.896 2.688 1.792 3.648 0.896 0.896 0.896 1.792 1.792 2.688 0.896 0.96 1.792 2.688 2.688 3.648l3.648 3.648c0.896 0.896 1.792 1.792 3.584 2.688 0.896 0.96 1.792 1.792 2.688 1.792l0.896 0.896 403.712 233.088c7.36 3.584 14.592 6.272 22.72 6.272s15.36-1.792 22.592-6.336l403.776-233.088s0.896 0 0.896-0.896c1.792-0.896 3.648-2.688 5.44-3.648l1.792-1.792 6.336-6.336c0.96-1.792 2.752-3.648 3.648-5.44 0-0.896 0.896-1.728 0.896-1.728a12.16 12.16 0 0 0 1.792-5.44c0-0.96 0.96-1.792 0.96-2.752 0.896-1.728 0.896-3.584 0.896-5.376V279.744L960 278.848zM512 96.384l313.408 180.672L512 457.664 198.592 277.952 512 96.384zM153.408 355.648l313.408 180.608v364.032l-313.408-180.608V355.648z m717.184 363.968l-313.344 180.608V536.256l313.344-180.608v363.968z m0 0" p-id="1870"></path></svg>