<?xml version="1.0" standalone="no"?><!DOCTYPE svg PUBLIC "-//W3C//DTD SVG 1.1//EN" "http://www.w3.org/Graphics/SVG/1.1/DTD/svg11.dtd"><svg t="1513421570393" class="icon" style="" viewBox="0 0 1024 1024" version="1.1" xmlns="http://www.w3.org/2000/svg" p-id="3536" xmlns:xlink="http://www.w3.org/1999/xlink" width="200" height="200"><defs><style type="text/css"></style></defs><path d="M1013.76 808.96c0 50.176-40.448 91.136-91.136 91.136s-91.136-40.448-91.136-91.136 91.136-198.656 91.136-198.656 91.136 148.48 91.136 198.656zM804.352 378.368l-98.816-47.104c-2.56-2.048-5.632-3.584-8.192-5.12L109.568 44.544c-29.696-14.336-65.536-1.536-79.872 28.16C15.36 102.4 28.16 138.24 57.856 152.576l149.504 71.68c0 0.512-0.512 1.024-0.512 1.536L31.744 591.36c-28.672 60.416-3.584 132.096 56.832 161.28l436.224 208.896c60.416 28.672 132.096 3.584 161.28-56.832l175.104-365.056c28.672-60.416 3.072-132.608-56.832-161.28zM250.368 415.744l66.048-137.216 54.784 26.112 109.056 52.224 109.056 52.224 109.056 52.224 54.272 25.6-611.328 156.672 56.832-118.784 52.224-109.056z" fill="#000000" p-id="3537"></path></svg>