<?xml version="1.0" standalone="no"?><!DOCTYPE svg PUBLIC "-//W3C//DTD SVG 1.1//EN" "http://www.w3.org/Graphics/SVG/1.1/DTD/svg11.dtd"><svg t="1512029310040" class="icon" style="" viewBox="0 0 1024 1024" version="1.1" xmlns="http://www.w3.org/2000/svg" p-id="4061" xmlns:xlink="http://www.w3.org/1999/xlink" width="200" height="200"><defs><style type="text/css"></style></defs><path d="M1003.818667 885.930667l-133.013333-132.970667c60.458667-76.373333 96.874667-172.629333 96.874667-277.376 0-247.04-200.981333-448-448-448-108.437333 0-213.077333 39.253333-294.656 110.549333-17.749333 15.509333-19.562667 42.453333-4.032 60.202667 15.509333 17.706667 42.453333 19.562667 60.202667 4.032 66.005333-57.685333 150.698667-89.450667 238.485333-89.450667 199.978667 0 362.666667 162.688 362.666667 362.666667s-162.688 362.666667-362.666667 362.666667c-87.786667 0-172.458667-31.744-238.464-89.408-17.770667-15.552-44.693333-13.717333-60.202667 4.053333-15.509333 17.728-13.696 44.693333 4.053333 60.181333 81.557333 71.253333 186.176 110.506667 294.613333 110.506667 102.122667 0 196.074667-34.730667 271.530667-92.48l133.738667 133.738667c21.930667 21.909333 57.365333 22.016 79.146667 0.256C1025.834667 943.274667 1025.706667 907.882667 1003.818667 885.930667z" p-id="4062"></path><path d="M757.098667 518.250667c22.656 0 41.045333-19.093333 41.045333-42.666667s-18.368-42.688-41.045333-42.688L497.834667 432.896c-22.656 0-41.024 19.114667-41.024 42.688s18.346667 42.666667 41.024 42.666667L757.098667 518.250667z" p-id="4063"></path><path d="M238.336 626.538667l0-108.288 108.288 0c22.656 0 41.045333-19.093333 41.045333-42.666667s-18.368-42.688-41.045333-42.688l-108.288 0 0-108.309333c0-22.656-19.114667-41.024-42.666667-41.024-23.573333 0-42.666667 18.346667-42.666667 41.024l0 108.309333L44.693333 432.896c-22.656 0-41.024 19.114667-41.024 42.688s18.346667 42.666667 41.024 42.666667l108.309333 0 0 108.288c0 22.656 19.093333 41.045333 42.666667 41.045333C219.221333 667.584 238.336 649.216 238.336 626.538667z" p-id="4064"></path></svg>